<svg width="1440" height="569" viewBox="0 0 1440 569" fill="none" xmlns="http://www.w3.org/2000/svg">
<path d="M-157 93.0933C-157 85.2176 -152.422 78.0849 -145.237 74.8595C-60.5905 36.8601 76.3152 -20.0667 282 80.151C497.5 185.151 858.5 -19.3491 947.5 2.15086C1036.5 23.6509 1076.5 190.651 1165.5 155.651C1254.5 120.651 1314 -30.0001 1567 48C1820 126 1779.5 134.151 1785 309.151C1790.5 484.151 1930.5 734.651 1548 686.151C1246.59 647.932 312.406 660.587 -136.836 672.125C-148.085 672.414 -157 663.367 -157 652.115V93.0933Z" fill="url(#paint0_linear_693_1630)"/>
<defs>
<linearGradient id="paint0_linear_693_1630" x1="828.733" y1="-149" x2="828.733" y2="692.268" gradientUnits="userSpaceOnUse">
<stop stop-color="#8620D7" stop-opacity="0"/>
<stop offset="0.827242" stop-color="#8620D7"/>
</linearGradient>
</defs>
</svg>
